<svg width="24" height="38" viewBox="0 0 24 38" fill="none" xmlns="http://www.w3.org/2000/svg">
<path d="M22 0.666666C22.449 0.666725 22.8825 0.831586 23.218 1.12998C23.5536 1.42837 23.768 1.83954 23.8205 2.2855L23.8333 2.5V9.83333C23.8333 10.2824 23.6684 10.7158 23.37 11.0513C23.0716 11.3869 22.6605 11.6013 22.2145 11.6538L22 11.6667H16.5V13.5H22C22.261 13.5001 22.5189 13.5559 22.7566 13.6637C22.9943 13.7715 23.2062 13.9288 23.3782 14.1251C23.5502 14.3214 23.6783 14.5522 23.7539 14.8019C23.8296 15.0517 23.851 15.3148 23.8168 15.5735L23.7802 15.7788L21.9468 23.1122C21.8558 23.4743 21.6565 23.7999 21.3754 24.0457C21.0943 24.2914 20.7448 24.4454 20.3738 24.4872L20.1667 24.5H16.5V35.5C16.4999 35.949 16.3351 36.3825 16.0367 36.718C15.7383 37.0536 15.3271 37.268 14.8812 37.3205L14.6667 37.3333H7.33333C6.88429 37.3333 6.45088 37.1684 6.11532 36.87C5.77975 36.5716 5.56537 36.1605 5.51283 35.7145L5.5 35.5V24.5H1.83333C1.38429 24.4999 0.950882 24.3351 0.615318 24.0367C0.279754 23.7383 0.0653715 23.3271 0.0128333 22.8812L0 22.6667V15.3333C5.9236e-05 14.8843 0.164919 14.4509 0.463311 14.1153C0.761703 13.7798 1.17287 13.5654 1.61883 13.5128L1.83333 13.5H5.5V11.6667C5.4999 8.82064 6.60287 6.08534 8.57719 4.03547C10.5515 1.9856 13.2435 0.780725 16.0875 0.673999L16.5 0.666666H22Z" fill="white"/>
</svg>
