<?xml version="1.0" encoding="UTF-8"?>
<svg width="40px" height="40px" viewBox="0 0 40 40" version="1.1" xmlns="http://www.w3.org/2000/svg" xmlns:xlink="http://www.w3.org/1999/xlink">
    <title>info</title>
    <g id="Page-1" stroke="none" stroke-width="1" fill="none" fill-rule="evenodd">
        <path d="M40,20 C40,31.046 31.046,40 20,40 C8.954,40 0,31.046 0,20 C0,8.954 8.954,0 20,0 C31.046,0 40,8.954 40,20 Z M36,20 C36,11.163444 28.836556,4 20,4 C11.163444,4 4,11.163444 4,20 C4,28.836556 11.163444,36 20,36 C24.2434638,36 28.3131264,34.3142906 31.3137084,31.3137084 C34.3142906,28.3131264 36,24.2434638 36,20 Z M18,32 L18,18 L22,18 L22,32 L18,32 Z M20,14.5 C19.3405629,14.5064592 18.7070514,14.2435194 18.246,13.772 C17.758786,13.3128153 17.487908,12.6693891 17.5,12 C17.5,11.304 17.746,10.712 18.244,10.228 C18.738,9.744 19.324,9.5 20,9.5 C20.674,9.5 21.26,9.744 21.754,10.228 C22.25,10.712 22.5,11.304 22.5,12 C22.5,12.696 22.252,13.288 21.754,13.772 C21.2929486,14.2435194 20.659437,14.5064592 20,14.5 L20,14.5 Z" id="info" fill="#FFFFFF" fill-rule="nonzero"></path>
    </g>
</svg>