<svg width="42" height="39" viewBox="0 0 42 39" fill="none" xmlns="http://www.w3.org/2000/svg">
<g filter="url(#filter0_d_1_17)">
<path d="M6.33334 9.66667C6.33334 7.72175 7.10595 5.85648 8.48122 4.48122C9.85649 3.10595 11.7217 2.33333 13.6667 2.33333H28.3333C30.2783 2.33333 32.1435 3.10595 33.5188 4.48122C34.8941 5.85648 35.6667 7.72175 35.6667 9.66667V24.3333C35.6667 26.2783 34.8941 28.1435 33.5188 29.5188C32.1435 30.894 30.2783 31.6667 28.3333 31.6667H13.6667C11.7217 31.6667 9.85649 30.894 8.48122 29.5188C7.10595 28.1435 6.33334 26.2783 6.33334 24.3333V9.66667Z" stroke="white" stroke-width="2.75" stroke-linecap="round" stroke-linejoin="round"/>
<path d="M15.5 17C15.5 18.4587 16.0795 19.8576 17.1109 20.8891C18.1424 21.9205 19.5413 22.5 21 22.5C22.4587 22.5 23.8576 21.9205 24.8891 20.8891C25.9205 19.8576 26.5 18.4587 26.5 17C26.5 15.5413 25.9205 14.1424 24.8891 13.1109C23.8576 12.0795 22.4587 11.5 21 11.5C19.5413 11.5 18.1424 12.0795 17.1109 13.1109C16.0795 14.1424 15.5 15.5413 15.5 17Z" stroke="white" stroke-width="2.75" stroke-linecap="round" stroke-linejoin="round"/>
<path d="M29.25 8.75V8.76833" stroke="white" stroke-width="2.75" stroke-linecap="round" stroke-linejoin="round"/>
</g>
<defs>
<filter id="filter0_d_1_17" x="0.958344" y="0.958333" width="40.0833" height="40.0833" filterUnits="userSpaceOnUse" color-interpolation-filters="sRGB">
<feFlood flood-opacity="0" result="BackgroundImageFix"/>
<feColorMatrix in="SourceAlpha" type="matrix" values="0 0 0 0 0 0 0 0 0 0 0 0 0 0 0 0 0 0 127 0" result="hardAlpha"/>
<feOffset dy="4"/>
<feGaussianBlur stdDeviation="2"/>
<feComposite in2="hardAlpha" operator="out"/>
<feColorMatrix type="matrix" values="0 0 0 0 0 0 0 0 0 0 0 0 0 0 0 0 0 0 0.25 0"/>
<feBlend mode="normal" in2="BackgroundImageFix" result="effect1_dropShadow_1_17"/>
<feBlend mode="normal" in="SourceGraphic" in2="effect1_dropShadow_1_17" result="shape"/>
</filter>
</defs>
</svg>
