<?xml version="1.0" encoding="UTF-8"?>
<svg width="40px" height="46px" viewBox="0 0 40 46" version="1.1" xmlns="http://www.w3.org/2000/svg" xmlns:xlink="http://www.w3.org/1999/xlink">
    <title>notification</title>
    <g id="Page-1" stroke="none" stroke-width="1" fill="none" fill-rule="evenodd">
        <path d="M20.0001218,45.7142857 C23.1536932,45.7142857 25.7117289,43.15625 25.7117289,40 L14.2885146,40 C14.2885146,43.15625 16.8465504,45.7142857 20.0001218,45.7142857 Z M39.2313718,32.3473214 C37.5063718,30.49375 34.2786932,27.7053571 34.2786932,18.5714286 C34.2786932,11.6339286 29.4144075,6.08035714 22.8554789,4.71785714 L22.8554789,2.85714286 C22.8554789,1.27946429 21.5769075,0 20.0001218,0 C18.4233361,0 17.1447646,1.27946429 17.1447646,2.85714286 L17.1447646,4.71785714 C10.5858361,6.08035714 5.72155035,11.6339286 5.72155035,18.5714286 C5.72155035,27.7053571 2.49387178,30.49375 0.768871783,32.3473214 C0.233157497,32.9232143 -0.00434250311,33.6116071 6.00515243e-05,34.2857143 C0.00994321118,35.75 1.15905035,37.1428571 2.86619321,37.1428571 L37.1340504,37.1428571 C38.8411932,37.1428571 39.9911932,35.75 40.0001835,34.2857143 C40.0045861,33.6116071 39.7670861,32.9223214 39.2313718,32.3473214 L39.2313718,32.3473214 Z" id="notification" fill="#FFFFFF" fill-rule="nonzero"></path>
    </g>
</svg>