<svg width="26" height="30" viewBox="0 0 26 30" fill="none" xmlns="http://www.w3.org/2000/svg">
<path d="M7.5 0.333332H3.83333C2.86087 0.333332 1.92824 0.71964 1.24061 1.40727C0.552972 2.09491 0.166664 3.02754 0.166664 4V26C0.166664 26.9725 0.552972 27.9051 1.24061 28.5927C1.92824 29.2804 2.86087 29.6667 3.83333 29.6667H7.5C8.47246 29.6667 9.40509 29.2804 10.0927 28.5927C10.7804 27.9051 11.1667 26.9725 11.1667 26V4C11.1667 3.02754 10.7804 2.09491 10.0927 1.40727C9.40509 0.71964 8.47246 0.333332 7.5 0.333332Z" fill="black"/>
<path d="M22.1667 0.333332H18.5C17.5275 0.333332 16.5949 0.71964 15.9073 1.40727C15.2196 2.09491 14.8333 3.02754 14.8333 4V26C14.8333 26.9725 15.2196 27.9051 15.9073 28.5927C16.5949 29.2804 17.5275 29.6667 18.5 29.6667H22.1667C23.1391 29.6667 24.0718 29.2804 24.7594 28.5927C25.447 27.9051 25.8333 26.9725 25.8333 26V4C25.8333 3.02754 25.447 2.09491 24.7594 1.40727C24.0718 0.71964 23.1391 0.333332 22.1667 0.333332Z" fill="black"/>
</svg>
