<?xml version="1.0" encoding="UTF-8"?>
<svg width="40px" height="40px" viewBox="0 0 40 40" version="1.1" xmlns="http://www.w3.org/2000/svg" xmlns:xlink="http://www.w3.org/1999/xlink">
    <title>plus</title>
    <g id="Page-1" stroke="none" stroke-width="1" fill="none" fill-rule="evenodd">
        <path d="M39.1666667,17.500002 L22.5,17.500002 L22.5,0.833335317 C22.5,0.37291865 22.1270833,1.98345759e-06 21.6666667,1.98345759e-06 L18.3333333,1.98345759e-06 C17.8729167,1.98345759e-06 17.5,0.37291865 17.5,0.833335317 L17.5,17.500002 L0.833333333,17.500002 C0.372916667,17.500002 0,17.8729187 0,18.3333353 L0,21.6666687 C0,22.1270853 0.372916667,22.500002 0.833333333,22.500002 L17.5,22.500002 L17.5,39.1666687 C17.5,39.6270853 17.8729167,40.000002 18.3333333,40.000002 L21.6666667,40.000002 C22.1270833,40.000002 22.5,39.6270853 22.5,39.1666687 L22.5,22.500002 L39.1666667,22.500002 C39.6270833,22.500002 40,22.1270853 40,21.6666687 L40,18.3333353 C40,17.8729187 39.6270833,17.500002 39.1666667,17.500002 Z" id="plus" fill="#FFFFFF" fill-rule="nonzero"></path>
    </g>
</svg>