<svg width="34" height="34" viewBox="0 0 34 34" fill="none" xmlns="http://www.w3.org/2000/svg">
<path d="M31.5438 18.9085C31.1976 21.5484 30.1393 24.0443 28.4825 26.1285C26.8256 28.2126 24.6326 29.8065 22.1388 30.739C19.6449 31.6716 16.9442 31.9077 14.3264 31.4221C11.7085 30.9364 9.27225 29.7473 7.27884 27.9822C5.28544 26.2172 3.81011 23.9428 3.01106 21.403C2.21202 18.8632 2.11942 16.1538 2.74318 13.5654C3.36695 10.977 4.68355 8.60718 6.55179 6.71015C8.42002 4.81312 10.7694 3.46044 13.348 2.79717C20.4962 0.963832 27.8955 4.64333 30.6272 11.5" stroke="white" stroke-width="2.75" stroke-linecap="round" stroke-linejoin="round"/>
<path d="M31.6667 2.33333V11.5H22.5" stroke="white" stroke-width="2.75" stroke-linecap="round" stroke-linejoin="round"/>
</svg>
