<?xml version="1.0" encoding="UTF-8"?>
<svg width="40px" height="40px" viewBox="0 0 40 40" version="1.1" xmlns="http://www.w3.org/2000/svg" xmlns:xlink="http://www.w3.org/1999/xlink">
    <title>search</title>
    <g id="Page-1" stroke="none" stroke-width="1" fill="none" fill-rule="evenodd">
        <path d="M39.453125,34.5859375 L31.6640625,26.796875 C31.3125,26.4453125 30.8359375,26.25 30.3359375,26.25 L29.0625,26.25 C31.21875,23.4921875 32.5,20.0234375 32.5,16.25 C32.5,7.2734375 25.2265625,0 16.25,0 C7.2734375,0 0,7.2734375 0,16.25 C0,25.2265625 7.2734375,32.5 16.25,32.5 C20.0234375,32.5 23.4921875,31.21875 26.25,29.0625 L26.25,30.3359375 C26.25,30.8359375 26.4453125,31.3125 26.796875,31.6640625 L34.5859375,39.453125 C35.3203125,40.1875 36.5078125,40.1875 37.234375,39.453125 L39.4453125,37.2421875 C40.1796875,36.5078125 40.1796875,35.3203125 39.453125,34.5859375 Z M16.25,26.25 C10.7265625,26.25 6.25,21.78125 6.25,16.25 C6.25,10.7265625 10.71875,6.25 16.25,6.25 C21.7734375,6.25 26.25,10.71875 26.25,16.25 C26.25,21.7734375 21.78125,26.25 16.25,26.25 Z" id="search" fill="#FFFFFF" fill-rule="nonzero"></path>
    </g>
</svg>