<?xml version="1.0" encoding="UTF-8"?>
<svg width="40px" height="40px" viewBox="0 0 40 40" version="1.1" xmlns="http://www.w3.org/2000/svg" xmlns:xlink="http://www.w3.org/1999/xlink">
    <title>thumb</title>
    <g id="Page-1" stroke="none" stroke-width="1" fill="none" fill-rule="evenodd">
        <path d="M38.80125,22.3189864 C39.5767969,21.3132051 40,20.000002 40,18.3959395 C40,15.4526582 37.4942969,12.7263301 34.3182031,12.7263301 L28.8377344,12.7263301 C29.5189844,11.3694551 30.4545313,9.68640823 30.4545313,7.27187698 C30.4546094,2.70875198 28.6342187,1.98345761e-06 23.9773438,1.98345761e-06 C21.6339844,1.98345761e-06 20.764375,2.96234573 20.3188281,5.25218948 C20.0526563,6.62023636 19.8011719,7.91250198 19.0278125,8.68586136 C17.1864062,10.5273457 14.375,15.000002 12.6860938,15.9082051 C12.5150781,15.9802364 12.2965625,16.0369551 12.0585938,16.081877 C11.6075781,15.4284395 10.8539844,15.000002 10,15.000002 L2.5,15.000002 C1.11929688,15.000002 0,16.1192989 0,17.500002 L0,37.500002 C0,38.8807051 1.11929688,40.000002 2.5,40.000002 L10,40.000002 C11.3807031,40.000002 12.5,38.8807051 12.5,37.500002 L12.5,36.8171895 C15.0386719,36.8171895 20.3661719,40.0005489 26.3636719,39.9989082 C26.79375,39.9991426 29.3050781,40.001252 29.5678125,39.9989082 C34.1992188,40.000002 36.7752344,37.1952364 36.6252344,32.9838301 C37.8070313,31.5989082 38.3860938,29.598127 38.0490625,27.741252 C39.0221875,26.2157832 39.2307812,24.0639082 38.80125,22.3189864 Z M2.5,37.500002 L2.5,17.500002 L10,17.500002 L10,37.500002 L2.5,37.500002 Z M35.6263281,21.590002 C36.875,22.500002 36.875,26.250002 35.1882813,27.1107051 C36.2446875,28.8888301 35.2939063,31.2682051 34.0152344,31.9541426 C34.663125,36.0588301 32.5339063,37.4702364 29.5455469,37.4989864 C29.2867969,37.5013301 26.635625,37.4989864 26.36375,37.4989864 C20.6661719,37.4989864 15.8370313,34.3171895 12.5000781,34.3171895 L12.5000781,18.4082051 C15.4460156,18.4082051 18.1489063,13.1004707 20.795625,10.4536739 C23.1819531,8.06734573 22.3864844,4.09008011 23.9774219,2.49922073 C27.9546875,2.49922073 27.9546875,5.27398636 27.9546875,7.27195511 C27.9546875,10.5679707 25.5683594,12.0446114 25.5683594,15.2264082 L34.3182813,15.2264082 C36.0940625,15.2264082 37.4922656,16.8173457 37.5001482,18.4082051 C37.5078125,19.9990645 36.875,21.250002 35.6263281,21.590002 Z M8.125,33.750002 C8.125,34.7855489 7.28554687,35.625002 6.25,35.625002 C5.21445313,35.625002 4.375,34.7855489 4.375,33.750002 C4.375,32.7144551 5.21445313,31.875002 6.25,31.875002 C7.28554687,31.875002 8.125,32.7144551 8.125,33.750002 Z" id="thumb" fill="#FFFFFF" fill-rule="nonzero"></path>
    </g>
</svg>