<?xml version="1.0" encoding="UTF-8"?>
<svg width="40px" height="40px" viewBox="0 0 40 40" version="1.1" xmlns="http://www.w3.org/2000/svg" xmlns:xlink="http://www.w3.org/1999/xlink">
    <title>thumb-down</title>
    <g id="Page-1" stroke="none" stroke-width="1" fill="none" fill-rule="evenodd">
        <path d="M38.80125,17.6810176 C39.2307813,15.9360176 39.0221875,13.7841426 38.0491406,12.258752 C38.3861719,10.401877 37.8070313,8.40117386 36.6253125,7.01617386 C36.7753125,2.80484573 34.1992188,1.42108547e-14 29.5678125,0.00109573346 C29.3050781,-0.00124801654 26.79375,0.000861358458 26.3636719,0.00109573346 C20.3588281,-0.000544891542 15.3060156,3.12500198 12.5,3.12500198 L11.6527344,3.12500198 C11.2121094,2.73633011 10.6338281,2.5 10,2.5 L2.5,2.5 C1.11929688,2.5 0,3.61929886 0,5 L0,25 C0,26.3807051 1.11929688,27.5 2.5,27.5 L10,27.5 C11.3807031,27.5 12.5,26.3807051 12.5,25 L12.5,24.0249239 C12.5664062,24.0457051 12.6291406,24.0678145 12.6860938,24.0917989 C14.375,25 17.1864063,29.4726582 19.0278125,31.3140645 C19.80125,32.087502 20.0526563,33.3796895 20.3188281,34.7477364 C20.764375,37.0376582 21.6339844,40 23.9773438,40 C28.6342188,40 30.4546094,37.291252 30.4546094,32.728127 C30.4546094,30.3135957 29.5190625,28.6305489 28.8378125,27.2736739 L34.3182813,27.2736739 C37.494375,27.2736739 40.0000781,24.5474239 40.0000781,21.6040645 C40.0000781,20 39.5767969,18.6867989 38.80125,17.6810176 Z M10,25.000002 L2.5,25.000002 L2.5,5.00000198 L10,5.00000198 L10,25.000002 Z M34.3182031,24.7735957 L25.5682813,24.7735957 C25.5682813,27.9553926 27.9546094,29.4320332 27.9546094,32.7280489 C27.9546094,34.7260176 27.9546094,37.5007832 23.9773438,37.5007832 C22.3864844,35.9098457 23.181875,31.9326582 20.7955469,29.5463301 C18.560625,27.3114082 15.2274219,21.5917989 12.8410156,21.5917989 L12.5,21.5917989 L12.5,5.68281448 L12.8410156,5.68281448 C15.5520312,5.68281448 20.7955469,2.50101761 26.3636719,2.50101761 C26.6355469,2.50101761 29.2867188,2.49867386 29.5454688,2.50101761 C32.5338281,2.52976761 34.6630469,3.94117386 34.0151563,8.04586136 C35.2938281,8.73179886 36.2446875,11.1110957 35.1882031,12.8892989 C36.875,13.750002 36.875,17.500002 35.6263281,18.410002 C36.875,18.750002 37.5078125,20.0009395 37.5000715,21.5917989 C37.4921875,23.1827364 36.0939844,24.7735957 34.3182031,24.7735957 Z M8.125,21.250002 C8.125,22.2855489 7.28554688,23.125002 6.25,23.125002 C5.21445313,23.125002 4.375,22.2855489 4.375,21.250002 C4.375,20.2144551 5.21445313,19.375002 6.25,19.375002 C7.28554688,19.375002 8.125,20.2144551 8.125,21.250002 Z" id="thumb-down" fill="#FFFFFF" fill-rule="nonzero"></path>
    </g>
</svg>