<svg width="42" height="34" viewBox="0 0 42 34" fill="none" xmlns="http://www.w3.org/2000/svg">
<path d="M32 0.5C33.2038 0.5 34.3958 0.737103 35.5079 1.19777C36.6201 1.65844 37.6306 2.33365 38.4818 3.18485C39.333 4.03606 40.0082 5.04658 40.4689 6.15874C40.9296 7.27089 41.1667 8.46288 41.1667 9.66667V24.3333C41.1667 25.5371 40.9296 26.7291 40.4689 27.8413C40.0082 28.9534 39.333 29.9639 38.4818 30.8151C37.6306 31.6663 36.6201 32.3416 35.5079 32.8022C34.3958 33.2629 33.2038 33.5 32 33.5H10C8.79621 33.5 7.60421 33.2629 6.49206 32.8022C5.37991 32.3416 4.36939 31.6663 3.51818 30.8151C1.7991 29.0961 0.833328 26.7645 0.833328 24.3333V9.66667C0.833328 7.23552 1.7991 4.90394 3.51818 3.18485C5.23727 1.46577 7.56884 0.5 10 0.5H32ZM15.5 11.5V22.5C15.5003 22.8242 15.5865 23.1426 15.7499 23.4226C15.9133 23.7026 16.1481 23.9343 16.4302 24.094C16.7124 24.2537 17.0318 24.3358 17.356 24.3317C17.6802 24.3277 17.9976 24.2378 18.2757 24.0712L27.4423 18.5712C27.7134 18.4082 27.9377 18.1778 28.0934 17.9025C28.2491 17.6272 28.3309 17.3163 28.3309 17C28.3309 16.6837 28.2491 16.3728 28.0934 16.0975C27.9377 15.8222 27.7134 15.5918 27.4423 15.4288L18.2757 9.92883C17.9976 9.76218 17.6802 9.67227 17.356 9.66826C17.0318 9.66424 16.7124 9.74627 16.4302 9.90599C16.1481 10.0657 15.9133 10.2974 15.7499 10.5774C15.5865 10.8574 15.5003 11.1758 15.5 11.5Z" fill="white"/>
</svg>
